<svg fill="white" xmlns="http://www.w3.org/2000/svg" width="64" height="64">
    <path d="M10 14a1.998 1.998 0 0 1-2-2c0-.53.21-1.04.58-1.41.75-.75 2.09-.75 2.83 0a1.983 1.983 0 0 1 0 2.82c-.37.38-.88.59-1.41.59z"/>
    <path d="M32 64C14.355 64 0 49.645 0 32a32.058 32.058 0 0 1 3.7-14.935 1.998 1.998 0 0 1 2.702-.833 1.998 1.998 0 0 1 .833 2.702A28.063 28.063 0 0 0 4 32c0 15.439 12.561 28 28 28 14.429 0 26.344-10.972 27.842-25.01C55.8 40.571 49.263 44.063 42 44.063c-12.165 0-22.063-9.897-22.063-22.063 0-7.262 3.491-13.799 9.07-17.841a27.895 27.895 0 0 0-11.939 4.159 1.998 1.998 0 0 1-2.759-.622 1.999 1.999 0 0 1 .622-2.759C21.641.697 29.694-.934 37.744.524a2 2 0 0 1 .102 3.914A17.978 17.978 0 0 0 23.938 22c0 9.96 8.103 18.063 18.063 18.063a17.979 17.979 0 0 0 17.562-13.908c.217-.923 1.026-1.591 1.998-1.54a2 2 0 0 1 1.916 1.642A32.43 32.43 0 0 1 64 32c0 17.645-14.355 32-32 32z"/>
</svg>
